<?xml version="1.0" encoding="UTF-8" standalone="no"?>
<svg width="1400px" height="1400px" viewBox="0 0 1400 1400" version="1.1" xmlns="http://www.w3.org/2000/svg" xmlns:xlink="http://www.w3.org/1999/xlink" xmlns:sketch="http://www.bohemiancoding.com/sketch/ns">
    <!-- Generator: Sketch 3.4 (15588) - http://www.bohemiancoding.com/sketch -->
    <title>snowball-logo</title>
    <desc>Created with Sketch.</desc>
    <defs>
        <path id="path-1" d="M300,600 C465.685425,600 600,465.685425 600,300 C600,134.314575 465.685425,0 300,0 C134.314575,0 0,134.314575 0,300 C0,465.685425 134.314575,600 300,600 Z"></path>
    </defs>
    <g id="Page-1" stroke="none" stroke-width="1" fill="none" fill-rule="evenodd" sketch:type="MSPage">
        <g id="snowball-logo" sketch:type="MSLayerGroup">
            <path d="M700,1400 C1086.59932,1400 1400,1086.59932 1400,700 C1400,313.400675 1086.59932,0 700,0 C313.400675,0 0,313.400675 0,700 C0,1086.59932 313.400675,1400 700,1400 Z" id="Oval-23" fill="#2887CA" sketch:type="MSShapeGroup"></path>
            <g id="Group" transform="translate(700.000000, 700.000000) rotate(-45.000000) translate(-700.000000, -700.000000) translate(400.000000, 128.000000)">
                <polygon id="Triangle-1" fill="#A1CFF0" sketch:type="MSShapeGroup" points="100 94.4905167 200 844 1.70530257e-13 844 "></polygon>
                <polygon id="Triangle-1-Copy" fill="#A1CFF0" sketch:type="MSShapeGroup" points="300 -2.27373675e-13 500 749.51001 100 749.51001 "></polygon>
                <polygon id="Triangle-1-Copy-3" fill="#A1CFF0" sketch:type="MSShapeGroup" points="500 94.4905167 600 844 400 844 "></polygon>
                <g id="Oval-25-Copy" transform="translate(0.000000, 544.000000)">
                    <mask id="mask-2" sketch:name="Mask" fill="white">
                        <use xlink:href="#path-1"></use>
                    </mask>
                    <use id="Mask" fill="#FFFFFF" sketch:type="MSShapeGroup" xlink:href="#path-1"></use>
                </g>
            </g>
        </g>
    </g>
</svg>